Coordinates
version=1
nRows=14
nColumns=36
inDegrees=yes

Units are S.I. units (second, meters, Newtons, ...)
If the header above contains a line with 'inDegrees', this indicates whether rotational values are in degrees (yes) or radians (no).

endheader
time	pelvis_tilt	pelvis_list	pelvis_rotation	pelvis_tx	pelvis_ty	pelvis_tz	hip_flexion_r	hip_adduction_r	hip_rotation_r	knee_angle_r	knee_angle_r_beta	ankle_angle_r	subtalar_angle_r	mtp_angle_r	hip_flexion_l	hip_adduction_l	hip_rotation_l	knee_angle_l	knee_angle_l_beta	ankle_angle_l	subtalar_angle_l	mtp_angle_l	lumbar_extension	lumbar_bending	lumbar_rotation	arm_flex_r	arm_add_r	arm_rot_r	elbow_flex_r	pro_sup_r	arm_flex_l	arm_add_l	arm_rot_l	elbow_flex_l	pro_sup_l
      1.04000000	    -15.54435236	     -1.51236251	      0.62942568	     -0.75783807	      1.35653782	     -0.57823758	     33.19022233	      0.67616544	      0.94541920	     59.82177666	      1.04408697	    -19.47287021	    -22.21252789	     -4.84973676	     33.74295044	      0.13897617	      6.82479648	     59.41856462	      1.03704959	    -15.00212552	     -5.46469562	     -4.84973676	    -13.83967521	      1.70275262	     -5.27124462	     36.46557530	    -18.00018016	     11.12465085	    109.66120829	    104.18018055	     17.33599592	    -18.08939705	      4.93769751	    114.05731128	    104.72357991
      1.05000000	    -15.19166677	     -1.50162224	      0.27721530	     -0.75052713	      1.35782586	     -0.57772057	     34.77227107	      0.69744560	      0.90876159	     61.58541318	      1.07486823	    -19.05343947	    -22.89661430	     -4.87102984	     35.04653789	     -0.07866029	      6.62985530	     60.73228638	      1.05997836	    -14.81195183	     -5.67894417	     -4.87102984	    -14.92481294	      1.53455979	     -4.87259795	     34.54417117	    -18.16474479	     10.77348692	    106.86663863	    104.06376714	     16.02332775	    -17.72462983	      3.91309344	    111.10171020	    104.40968945
      1.06000000	    -15.18416048	     -1.42178787	      0.07925214	     -0.74291889	      1.35819000	     -0.57782195	     36.52699276	      0.50558867	      0.76517481	     62.75930085	      1.09535644	    -18.75899883	    -23.52229576	     -4.90231853	     36.43716470	     -0.06418682	      6.67036102	     61.29443985	      1.06978979	    -14.61313640	     -6.12295160	     -4.90231853	    -15.50465096	      1.36032613	     -4.65768799	     32.41057495	    -18.35278838	     10.49129065	    103.68470934	    104.00942212	     14.61897335	    -17.33974410	      3.08532286	    107.73481650	    104.11732207
      1.07000000	    -15.09787024	     -1.34314398	     -0.08288040	     -0.73528302	      1.35785863	     -0.57798211	     38.09447469	      0.26943248	      0.57345628	     63.51039620	      1.10846552	    -18.68969433	    -24.11339813	     -4.96574752	     37.65718861	     -0.17562368	      6.50628958	     61.43598289	      1.07226018	    -14.80572450	     -6.95315903	     -4.96574752	    -16.24189150	      1.19896270	     -4.38743603	     30.42132832	    -18.58875878	     10.29332669	    100.41602007	    104.25302429	     13.43289004	    -16.90351725	      2.31153707	    104.30054334	    103.97576995
      1.08000000	    -14.96643412	     -1.33818940	     -0.37432544	     -0.72726467	      1.35696017	     -0.57759935	     39.39199971	      0.25902005	      0.51178443	     63.65885332	      1.11105659	    -18.48048300	    -24.52784170	     -4.98898066	     38.59757722	     -0.59955568	      6.13867343	     61.01922860	      1.06498645	    -14.74275451	     -7.43671598	     -4.98898066	    -17.04744987	      1.06351680	     -4.01636388	     28.46885321	    -18.73113160	     10.17000876	     97.09097178	    104.24083900	     12.23284178	    -16.25537434	      1.23787414	    100.70393977	    103.62736868
      1.09000000	    -15.05860378	     -1.36698607	     -0.63780429	     -0.71912388	      1.35483583	     -0.57715538	     40.80576736	      0.25625374	      0.35089405	     63.38071370	      1.10620214	    -18.47782384	    -24.84202538	     -5.01548529	     39.65275697	     -1.05709317	      5.85085752	     60.21296367	      1.05091447	    -14.83769460	     -8.05804418	     -5.01548529	    -17.52667807	      0.95567150	     -3.66473303	     26.63166210	    -19.02596244	     10.34478975	     93.49120070	    104.33243923	     11.11221581	    -15.64554764	      0.34282778	     96.90185728	    103.30015663
      1.10000000	    -15.23574348	     -1.39919680	     -0.80682871	     -0.71081380	      1.35179067	     -0.57700388	     42.11416002	      0.18622671	      0.09269857	     62.57086931	      1.09206769	    -18.97658639	    -25.37856691	     -5.47873755	     40.62649262	     -1.37949238	      5.82450881	     58.92966263	      1.02851664	    -15.52516157	     -9.32036984	     -5.47873755	    -17.85866425	      0.90008382	     -3.74138638	     25.28046881	    -19.31568060	     11.03916664	     89.08441938	    108.86835771	      9.73742852	    -15.16850294	     -0.97821772	     93.00191751	    105.08148052
      1.11000000	    -15.28952522	     -1.39378230	     -0.96557996	     -0.70223809	      1.34815333	     -0.57679952	     43.08199078	      0.06898319	     -0.13598887	     61.28422802	      1.06961156	    -19.04509496	    -25.18348719	     -5.50851662	     41.26227607	     -1.69467239	      5.86574905	     57.20409407	      0.99839979	    -15.58008770	     -9.54320007	     -5.50851662	    -18.33930569	      0.76022055	     -3.46441110	     23.53276431	    -19.65878040	     11.27762426	     85.42988438	    108.68551090	      8.76040671	    -14.53555434	     -1.91831062	     89.07491815	    104.62463734
      1.12000000	    -15.25101083	     -1.37628003	     -1.24170472	     -0.69332865	      1.34376570	     -0.57620183	     43.76507209	      0.04554407	     -0.23104700	     59.53817712	      1.03913722	    -19.33371550	    -24.76705896	     -5.53613423	     41.61579585	     -2.12011162	      5.73132581	     55.11851732	      0.96199961	    -15.82898473	     -9.91835747	     -5.53613423	    -18.84578367	      0.54630531	     -3.14628011	     21.90221174	    -19.73396053	     11.58599101	     81.54352868	    108.64096457	      7.76156847	    -14.03613299	     -2.74764780	     85.08536707	    104.19066775
      1.13000000	    -15.18990606	     -1.33318441	     -1.63005542	     -0.68408534	      1.33839097	     -0.57532022	     44.25378385	      0.13777024	     -0.12662481	     57.38414516	      1.00154227	    -19.89871010	    -24.19804864	     -5.57352040	     41.72916514	     -2.64114380	      5.35180667	     52.65352254	      0.91897733	    -16.34198095	    -10.59502251	     -5.57352040	    -19.30161767	      0.25587134	     -2.83689548	     20.42893414	    -19.73360619	     12.11105907	     77.50576224	    108.89405809	      6.76054142	    -13.69899346	     -3.35881146	     81.08589717	    103.80761796
      1.14000000	    -15.18750705	     -1.30428067	     -1.94282501	     -0.67480361	      1.33176470	     -0.57475111	     44.66672433	      0.16510426	     -0.11307763	     54.91287152	      0.95841041	    -20.64511154	    -23.47439005	     -5.63388310	     41.75669594	     -3.13201397	      4.96479980	     49.85013450	      0.87004898	    -17.13220643	    -11.44050449	     -5.63388310	    -19.63370978	      0.05360326	     -2.69273464	     19.11251391	    -19.81896439	     12.86504236	     73.49954411	    109.64156267	      5.69117070	    -13.45885568	     -3.92561727	     77.27385856	    103.52608693
      1.15000000	    -15.20866853	     -1.31673508	     -2.07763738	     -0.66540942	      1.32399939	     -0.57470276	     44.94475142	      0.05713419	     -0.24719391	     52.14193956	      0.91004852	    -21.31938122	    -22.20441487	     -5.71878453	     41.72141996	     -3.51759136	      4.73831770	     46.81579154	      0.81708970	    -17.94352126	    -11.97987138	     -5.71878453	    -19.92453802	      0.01826039	     -2.76327860	     17.78263832	    -19.92720621	     13.52936675	     69.75327341	    110.71702374	      4.48267508	    -13.10436180	     -4.82926596	     73.80537595	    103.35581208
      1.16000000	    -15.20791014	     -1.34470850	     -2.15353791	     -0.65569290	      1.31522566	     -0.57477391	     45.01676469	     -0.06570300	     -0.40684801	     49.07423722	      0.85650702	    -22.12587827	    -20.89355045	     -5.74814670	     41.57533036	     -3.86872867	      4.58092279	     43.65336088	      0.76189488	    -18.55044730	    -11.88712215	     -5.74814670	    -20.20425661	      0.01081807	     -2.75774393	     16.15223675	    -20.01453334	     13.69845688	     66.59800827	    110.97815321	      3.34267899	    -12.71313475	     -5.62041171	     70.45586081	    103.06566877
      1.17000000	    -15.25027222	     -1.30723993	     -2.23268580	     -0.64561883	      1.30522879	     -0.57482694	     45.02274237	     -0.20922673	     -0.42530843	     45.88299749	      0.80080938	    -22.94077261	    -19.53852582	     -5.77806594	     41.38590868	     -4.16277237	      4.32730195	     40.38881857	      0.70491787	    -19.51305304	    -12.05245099	     -5.77806594	    -20.32159733	     -0.04929427	     -2.83519719	     14.61646119	    -20.10374410	     14.17166393	     63.31210475	    111.76768826	      2.11120276	    -12.51786920	     -6.02622326	     67.12726207	    103.14787573
